<?xml version="1.0" standalone="no"?>
<!DOCTYPE svg PUBLIC "-//W3C//DTD SVG 20010904//EN"
 "http://www.w3.org/TR/2001/REC-SVG-20010904/DTD/svg10.dtd">
<svg version="1.0" xmlns="http://www.w3.org/2000/svg"
 width="300.000000pt" height="300.000000pt" viewBox="0 0 300.000000 300.000000"
 preserveAspectRatio="xMidYMid meet">
<metadata>
Created by potrace 1.11, written by Peter Selinger 2001-2013
</metadata>
<g transform="translate(0.000000,300.000000) scale(0.100000,-0.100000)"
fill="#000000" stroke="none">
<path d="M1481 2986 c-7 -8 -9 -21 -5 -27 4 -7 3 -9 -3 -6 -8 5 -113 -95 -113
-108 0 -1 -19 -23 -42 -47 -24 -25 -60 -65 -82 -89 -21 -24 -73 -82 -116 -129
-42 -47 -91 -101 -109 -120 -17 -19 -31 -39 -31 -45 0 -5 -1 -128 -1 -272 l0
-261 -157 0 c-86 0 -164 -1 -173 -1 -15 -1 -85 -69 -314 -306 -33 -34 -93 -96
-133 -137 l-74 -75 149 -153 c81 -84 194 -200 250 -259 l102 -106 158 -2 c87
-1 166 -2 175 -2 15 -1 16 -18 15 -162 l-1 -160 260 -260 260 -260 261 259
261 260 0 155 c0 86 2 159 5 164 3 4 81 8 173 7 l167 -1 71 72 c39 40 154 157
254 260 l184 188 -56 56 c-30 31 -144 148 -254 260 l-198 204 -174 1 -175 1
-1 265 c-1 146 -2 268 -3 272 0 4 -11 18 -23 30 -13 13 -59 64 -103 113 -44
50 -84 95 -90 101 -5 6 -41 46 -80 90 -236 265 -219 248 -234 230z m4 -175 c3
-5 2 -12 -3 -15 -5 -3 -9 1 -9 9 0 17 3 19 12 6z m-78 -16 c0 -8 -4 -12 -9 -9
-5 3 -6 10 -3 15 9 13 12 11 12 -6z m157 7 c3 -5 -1 -9 -9 -9 -8 0 -12 4 -9 9
3 4 7 8 9 8 2 0 6 -4 9 -8z m96 -78 c0 -8 -19 -13 -24 -6 -3 5 1 9 9 9 8 0 15
-2 15 -3z m-335 -163 c3 -5 2 -12 -3 -15 -5 -3 -9 1 -9 9 0 17 3 19 12 6z
m175 3 c0 -8 -19 -13 -24 -6 -3 5 1 9 9 9 8 0 15 -2 15 -3z m225 -4 c3 -5 1
-10 -4 -10 -6 0 -11 5 -11 10 0 6 2 10 4 10 3 0 8 -4 11 -10z m-522 -35 c-3
-9 -8 -14 -10 -11 -3 3 -2 9 2 15 9 16 15 13 8 -4z m281 -43 c3 -5 -1 -9 -9
-9 -8 0 -12 4 -9 9 3 4 7 8 9 8 2 0 6 -4 9 -8z m246 -2 c0 -5 -2 -10 -4 -10
-3 0 -8 5 -11 10 -3 6 -1 10 4 10 6 0 11 -4 11 -10z m-483 -85 c0 -8 -4 -12
-9 -9 -5 3 -6 10 -3 15 9 13 12 11 12 -6z m367 -33 c3 -5 -1 -9 -9 -9 -8 0
-15 4 -15 9 0 4 4 8 9 8 6 0 12 -4 15 -8z m351 -31 c3 -5 2 -12 -3 -15 -5 -3
-9 1 -9 9 0 17 3 19 12 6z m-715 -331 c0 -5 -2 -10 -4 -10 -3 0 -8 5 -11 10
-3 6 -1 10 4 10 6 0 11 -4 11 -10z"/>
</g>
</svg>
