<?xml version="1.0" standalone="no"?>
<!DOCTYPE svg PUBLIC "-//W3C//DTD SVG 20010904//EN"
 "http://www.w3.org/TR/2001/REC-SVG-20010904/DTD/svg10.dtd">
<svg version="1.0" xmlns="http://www.w3.org/2000/svg"
 width="176.000000pt" height="176.000000pt" viewBox="0 0 176.000000 176.000000"
 preserveAspectRatio="xMidYMid meet">
<metadata>
Created by potrace 1.11, written by Peter Selinger 2001-2013
</metadata>
<g transform="translate(0.000000,176.000000) scale(0.100000,-0.100000)"
fill="#000000" stroke="none">
<path d="M854 1715 c-3 -8 -2 -20 2 -27 6 -10 5 -11 -7 -1 -12 10 -23 5 -58
-26 -27 -24 -39 -41 -32 -45 6 -4 16 -4 23 0 7 4 8 3 4 -5 -4 -7 -16 -9 -27
-6 -14 5 -28 -2 -46 -22 -14 -15 -22 -21 -17 -13 4 8 -13 -7 -39 -33 -27 -26
-46 -51 -43 -56 3 -5 -2 -8 -12 -7 -16 1 -17 -14 -17 -169 0 -93 -4 -176 -8
-182 -6 -9 -41 -13 -116 -13 l-107 0 -148 -150 c-155 -156 -153 -153 -116
-190 3 -3 61 -64 128 -137 l124 -132 115 -3 115 -3 0 -100 -1 -100 58 -55 c32
-30 91 -86 132 -125 40 -38 70 -63 65 -55 -4 8 5 1 20 -17 l27 -32 41 39 c23
22 90 87 149 145 l108 106 2 92 c1 51 7 95 12 99 6 4 57 8 115 8 l105 0 137
147 c75 82 138 151 140 154 1 3 -62 74 -141 157 l-145 152 -95 0 c-149 0 -136
-17 -135 178 l1 166 -53 52 c-29 29 -55 50 -58 46 -3 -3 -6 2 -6 11 0 10 -4
17 -10 17 -5 0 -38 30 -74 66 -36 36 -70 63 -76 59 -6 -3 -7 -11 -4 -17 5 -7
2 -8 -5 -3 -9 5 -10 10 -2 18 16 16 14 27 -4 27 -9 0 -18 -7 -21 -15z m90 -61
c3 -8 2 -12 -4 -9 -6 3 -10 10 -10 16 0 14 7 11 14 -7z m36 -40 c0 -8 -19 -13
-24 -6 -3 5 1 9 9 9 8 0 15 -2 15 -3z m-231 -41 c-20 -27 -49 -55 -49 -47 0
10 44 63 54 63 5 1 2 -7 -5 -16z m282 -40 c13 -16 12 -17 -3 -4 -10 7 -18 15
-18 17 0 8 8 3 21 -13z m74 -52 c-3 -6 3 -14 12 -20 10 -6 13 -11 8 -11 -13 0
-35 20 -35 32 0 4 5 8 11 8 5 0 8 -4 4 -9z m10 -176 l0 -80 -77 -3 -78 -3 0
-279 0 -280 -85 0 -85 0 -1 228 c-1 125 -2 250 -3 277 l-1 50 -77 3 -78 3 0
78 c0 43 3 81 7 85 4 3 113 5 242 4 l236 -3 0 -80z"/>
</g>
</svg>
